<svg width="48" height="48" viewBox="0 0 48 48" fill="none" xmlns="http://www.w3.org/2000/svg">
  <!-- Background -->
  <rect width="48" height="48" rx="12" fill="url(#iconGradient)"/>
  <defs>
    <linearGradient id="iconGradient" x1="0" y1="0" x2="48" y2="48" gradientUnits="userSpaceOnUse">
      <stop stop-color="#1d70b8"/>
      <stop offset="1" stop-color="#2e8bc0"/>
    </linearGradient>
  </defs>
  
  <!-- Bell Icon -->
  <path d="M24 14C22.34 14 21 15.34 21 17V28C21 29.66 22.34 31 24 31C25.66 31 27 29.66 27 28V17C27 15.34 25.66 14 24 14Z" fill="white" opacity="0.9"/>
  <path d="M19 28C19 28 19 29 19 30C19 32.21 20.79 34 23 34H25C27.21 34 29 32.21 29 30C29 29 29 28 29 28" stroke="white" stroke-width="2" stroke-linecap="round"/>
  
  <!-- Notification dot -->
  <circle cx="32" cy="16" r="4" fill="#28a745"/>
  <circle cx="32" cy="16" r="4" fill="#28a745" opacity="0.3">
    <animate attributeName="r" values="4;6;4" dur="2s" repeatCount="indefinite"/>
  </circle>
</svg>
