<svg width="400" height="400" viewBox="0 0 400 400" fill="none" xmlns="http://www.w3.org/2000/svg">
  <!-- Multiple Test Centers Illustration -->
  <defs>
    <linearGradient id="centerGrad" x1="0%" y1="0%" x2="100%" y2="100%">
      <stop offset="0%" stop-color="#6f42c1"/>
      <stop offset="100%" stop-color="#e83e8c"/>
    </linearGradient>
  </defs>
  
  <!-- Map background -->
  <rect x="50" y="50" width="300" height="300" rx="20" fill="#f0f7ff" stroke="#1d70b8" stroke-width="3"/>
  
  <!-- Map grid lines -->
  <line x1="50" y1="150" x2="350" y2="150" stroke="#1d70b8" stroke-width="1" opacity="0.2"/>
  <line x1="50" y1="250" x2="350" y2="250" stroke="#1d70b8" stroke-width="1" opacity="0.2"/>
  <line x1="150" y1="50" x2="150" y2="350" stroke="#1d70b8" stroke-width="1" opacity="0.2"/>
  <line x1="250" y1="50" x2="250" y2="350" stroke="#1d70b8" stroke-width="1" opacity="0.2"/>
  
  <!-- Location pins -->
  <!-- Pin 1 - Manchester -->
  <g transform="translate(120, 100)">
    <path d="M0,-20 C-8,-20 -15,-13 -15,-5 C-15,5 0,20 0,20 C0,20 15,5 15,-5 C15,-13 8,-20 0,-20Z" fill="url(#centerGrad)"/>
    <circle cx="0" cy="-5" r="5" fill="white"/>
    <circle cx="0" cy="-5" r="15" fill="url(#centerGrad)" opacity="0.2">
      <animate attributeName="r" values="15;25" dur="2s" repeatCount="indefinite"/>
      <animate attributeName="opacity" values="0.2;0" dur="2s" repeatCount="indefinite"/>
    </circle>
  </g>
  
  <!-- Pin 2 - London -->
  <g transform="translate(280, 280)">
    <path d="M0,-20 C-8,-20 -15,-13 -15,-5 C-15,5 0,20 0,20 C0,20 15,5 15,-5 C15,-13 8,-20 0,-20Z" fill="url(#centerGrad)"/>
    <circle cx="0" cy="-5" r="5" fill="white"/>
    <circle cx="0" cy="-5" r="15" fill="url(#centerGrad)" opacity="0.2">
      <animate attributeName="r" values="15;25" dur="2s" repeatCount="indefinite" begin="0.5s"/>
      <animate attributeName="opacity" values="0.2;0" dur="2s" repeatCount="indefinite" begin="0.5s"/>
    </circle>
  </g>
  
  <!-- Pin 3 - Birmingham -->
  <g transform="translate(200, 200)">
    <path d="M0,-20 C-8,-20 -15,-13 -15,-5 C-15,5 0,20 0,20 C0,20 15,5 15,-5 C15,-13 8,-20 0,-20Z" fill="url(#centerGrad)"/>
    <circle cx="0" cy="-5" r="5" fill="white"/>
    <circle cx="0" cy="-5" r="15" fill="url(#centerGrad)" opacity="0.2">
      <animate attributeName="r" values="15;25" dur="2s" repeatCount="indefinite" begin="1s"/>
      <animate attributeName="opacity" values="0.2;0" dur="2s" repeatCount="indefinite" begin="1s"/>
    </circle>
  </g>
  
  <!-- Connecting lines -->
  <line x1="120" y1="100" x2="200" y2="200" stroke="#6f42c1" stroke-width="2" stroke-dasharray="5 5" opacity="0.3"/>
  <line x1="200" y1="200" x2="280" y2="280" stroke="#6f42c1" stroke-width="2" stroke-dasharray="5 5" opacity="0.3"/>
</svg>
